<mxfile host="app.diagrams.net" modified="2024-02-07T00:50:28.665Z" agent="Mozilla/5.0 (Windows NT 10.0; Win64; x64) AppleWebKit/537.36 (KHTML, like Gecko) Chrome/121.0.0.0 Safari/537.36" etag="qqMg_QW93F8svSguKT1f" version="23.1.1" type="device">
  <diagram name="Página-1" id="N5QUR7hDxwmrpogjVFji">
    <mxGraphModel dx="2867" dy="1147" grid="1" gridSize="10" guides="1" tooltips="1" connect="1" arrows="1" fold="1" page="1" pageScale="1" pageWidth="827" pageHeight="1169" math="0" shadow="0">
      <root>
        <mxCell id="0" />
        <mxCell id="1" parent="0" />
        <mxCell id="8elSAykd6TNkbuHfAyJK-614" style="edgeStyle=orthogonalEdgeStyle;rounded=0;orthogonalLoop=1;jettySize=auto;html=1;exitX=0.5;exitY=1;exitDx=0;exitDy=0;entryX=0.5;entryY=0;entryDx=0;entryDy=0;" edge="1" parent="1" source="8elSAykd6TNkbuHfAyJK-610" target="8elSAykd6TNkbuHfAyJK-613">
          <mxGeometry relative="1" as="geometry" />
        </mxCell>
        <mxCell id="8elSAykd6TNkbuHfAyJK-610" value="INICIO" style="ellipse;whiteSpace=wrap;html=1;" vertex="1" parent="1">
          <mxGeometry x="360" width="80" height="30" as="geometry" />
        </mxCell>
        <mxCell id="8elSAykd6TNkbuHfAyJK-616" style="edgeStyle=orthogonalEdgeStyle;rounded=0;orthogonalLoop=1;jettySize=auto;html=1;exitX=0.5;exitY=1;exitDx=0;exitDy=0;entryX=0.5;entryY=0;entryDx=0;entryDy=0;" edge="1" parent="1" source="8elSAykd6TNkbuHfAyJK-613" target="8elSAykd6TNkbuHfAyJK-615">
          <mxGeometry relative="1" as="geometry" />
        </mxCell>
        <mxCell id="8elSAykd6TNkbuHfAyJK-613" value="Elegir método&lt;br&gt;&amp;nbsp;de pago" style="shape=parallelogram;perimeter=parallelogramPerimeter;whiteSpace=wrap;html=1;fixedSize=1;" vertex="1" parent="1">
          <mxGeometry x="340" y="50" width="120" height="30" as="geometry" />
        </mxCell>
        <mxCell id="8elSAykd6TNkbuHfAyJK-615" value="Seleccione &lt;br&gt;método de pago" style="rounded=0;whiteSpace=wrap;html=1;" vertex="1" parent="1">
          <mxGeometry x="345" y="100" width="110" height="30" as="geometry" />
        </mxCell>
        <mxCell id="8elSAykd6TNkbuHfAyJK-622" style="edgeStyle=orthogonalEdgeStyle;rounded=0;orthogonalLoop=1;jettySize=auto;html=1;exitX=0;exitY=0.5;exitDx=0;exitDy=0;entryX=1;entryY=0.5;entryDx=0;entryDy=0;" edge="1" parent="1" source="8elSAykd6TNkbuHfAyJK-617" target="8elSAykd6TNkbuHfAyJK-620">
          <mxGeometry relative="1" as="geometry" />
        </mxCell>
        <mxCell id="8elSAykd6TNkbuHfAyJK-624" style="edgeStyle=orthogonalEdgeStyle;rounded=0;orthogonalLoop=1;jettySize=auto;html=1;exitX=1;exitY=0.5;exitDx=0;exitDy=0;entryX=0;entryY=0.5;entryDx=0;entryDy=0;" edge="1" parent="1" source="8elSAykd6TNkbuHfAyJK-617" target="8elSAykd6TNkbuHfAyJK-621">
          <mxGeometry relative="1" as="geometry" />
        </mxCell>
        <mxCell id="8elSAykd6TNkbuHfAyJK-661" style="edgeStyle=orthogonalEdgeStyle;rounded=0;orthogonalLoop=1;jettySize=auto;html=1;exitX=0.5;exitY=1;exitDx=0;exitDy=0;entryX=0.5;entryY=0;entryDx=0;entryDy=0;" edge="1" parent="1" source="8elSAykd6TNkbuHfAyJK-617" target="8elSAykd6TNkbuHfAyJK-657">
          <mxGeometry relative="1" as="geometry" />
        </mxCell>
        <mxCell id="8elSAykd6TNkbuHfAyJK-617" value="¿Su pago será en?" style="shape=parallelogram;perimeter=parallelogramPerimeter;whiteSpace=wrap;html=1;fixedSize=1;" vertex="1" parent="1">
          <mxGeometry x="335" y="140" width="120" height="30" as="geometry" />
        </mxCell>
        <mxCell id="8elSAykd6TNkbuHfAyJK-619" style="edgeStyle=orthogonalEdgeStyle;rounded=0;orthogonalLoop=1;jettySize=auto;html=1;exitX=0.5;exitY=1;exitDx=0;exitDy=0;entryX=0.546;entryY=-0.004;entryDx=0;entryDy=0;entryPerimeter=0;" edge="1" parent="1" source="8elSAykd6TNkbuHfAyJK-615" target="8elSAykd6TNkbuHfAyJK-617">
          <mxGeometry relative="1" as="geometry" />
        </mxCell>
        <mxCell id="8elSAykd6TNkbuHfAyJK-659" style="edgeStyle=orthogonalEdgeStyle;rounded=0;orthogonalLoop=1;jettySize=auto;html=1;exitX=0.5;exitY=1;exitDx=0;exitDy=0;entryX=0;entryY=0.5;entryDx=0;entryDy=0;" edge="1" parent="1" source="8elSAykd6TNkbuHfAyJK-620" target="8elSAykd6TNkbuHfAyJK-657">
          <mxGeometry relative="1" as="geometry" />
        </mxCell>
        <mxCell id="8elSAykd6TNkbuHfAyJK-620" value="Monedas" style="rounded=0;whiteSpace=wrap;html=1;" vertex="1" parent="1">
          <mxGeometry x="220" y="145" width="80" height="20" as="geometry" />
        </mxCell>
        <mxCell id="8elSAykd6TNkbuHfAyJK-660" style="edgeStyle=orthogonalEdgeStyle;rounded=0;orthogonalLoop=1;jettySize=auto;html=1;exitX=0.5;exitY=1;exitDx=0;exitDy=0;entryX=1;entryY=0.5;entryDx=0;entryDy=0;" edge="1" parent="1" source="8elSAykd6TNkbuHfAyJK-621" target="8elSAykd6TNkbuHfAyJK-657">
          <mxGeometry relative="1" as="geometry" />
        </mxCell>
        <mxCell id="8elSAykd6TNkbuHfAyJK-621" value="Billetes" style="rounded=0;whiteSpace=wrap;html=1;" vertex="1" parent="1">
          <mxGeometry x="490" y="145" width="80" height="20" as="geometry" />
        </mxCell>
        <mxCell id="8elSAykd6TNkbuHfAyJK-633" value="" style="edgeStyle=orthogonalEdgeStyle;rounded=0;orthogonalLoop=1;jettySize=auto;html=1;" edge="1" parent="1" source="8elSAykd6TNkbuHfAyJK-630" target="8elSAykd6TNkbuHfAyJK-632">
          <mxGeometry relative="1" as="geometry" />
        </mxCell>
        <mxCell id="8elSAykd6TNkbuHfAyJK-665" style="edgeStyle=orthogonalEdgeStyle;rounded=0;orthogonalLoop=1;jettySize=auto;html=1;exitX=0.5;exitY=1;exitDx=0;exitDy=0;entryX=0.5;entryY=0;entryDx=0;entryDy=0;" edge="1" parent="1" source="8elSAykd6TNkbuHfAyJK-630" target="8elSAykd6TNkbuHfAyJK-663">
          <mxGeometry relative="1" as="geometry" />
        </mxCell>
        <mxCell id="8elSAykd6TNkbuHfAyJK-630" value="Si" style="rounded=0;whiteSpace=wrap;html=1;" vertex="1" parent="1">
          <mxGeometry x="335" y="250" width="120" height="30" as="geometry" />
        </mxCell>
        <mxCell id="8elSAykd6TNkbuHfAyJK-636" style="edgeStyle=orthogonalEdgeStyle;rounded=0;orthogonalLoop=1;jettySize=auto;html=1;exitX=0.5;exitY=0;exitDx=0;exitDy=0;entryX=1;entryY=0.5;entryDx=0;entryDy=0;" edge="1" parent="1" source="8elSAykd6TNkbuHfAyJK-632" target="8elSAykd6TNkbuHfAyJK-615">
          <mxGeometry relative="1" as="geometry" />
        </mxCell>
        <mxCell id="8elSAykd6TNkbuHfAyJK-632" value="No" style="rounded=0;whiteSpace=wrap;html=1;" vertex="1" parent="1">
          <mxGeometry x="570" y="250" width="120" height="30" as="geometry" />
        </mxCell>
        <mxCell id="8elSAykd6TNkbuHfAyJK-650" value="" style="edgeStyle=orthogonalEdgeStyle;rounded=0;orthogonalLoop=1;jettySize=auto;html=1;" edge="1" parent="1" source="8elSAykd6TNkbuHfAyJK-643">
          <mxGeometry relative="1" as="geometry">
            <mxPoint x="260" y="400" as="targetPoint" />
          </mxGeometry>
        </mxCell>
        <mxCell id="8elSAykd6TNkbuHfAyJK-643" value="Bebida" style="whiteSpace=wrap;html=1;" vertex="1" parent="1">
          <mxGeometry x="220" y="317.5" width="80" height="25" as="geometry" />
        </mxCell>
        <mxCell id="8elSAykd6TNkbuHfAyJK-677" value="" style="edgeStyle=orthogonalEdgeStyle;rounded=0;orthogonalLoop=1;jettySize=auto;html=1;" edge="1" parent="1" source="8elSAykd6TNkbuHfAyJK-645" target="8elSAykd6TNkbuHfAyJK-676">
          <mxGeometry relative="1" as="geometry" />
        </mxCell>
        <mxCell id="8elSAykd6TNkbuHfAyJK-645" value="Golosina" style="whiteSpace=wrap;html=1;" vertex="1" parent="1">
          <mxGeometry x="480" y="380" width="80" height="25" as="geometry" />
        </mxCell>
        <mxCell id="8elSAykd6TNkbuHfAyJK-673" value="" style="edgeStyle=orthogonalEdgeStyle;rounded=0;orthogonalLoop=1;jettySize=auto;html=1;" edge="1" parent="1" source="8elSAykd6TNkbuHfAyJK-651" target="8elSAykd6TNkbuHfAyJK-672">
          <mxGeometry relative="1" as="geometry" />
        </mxCell>
        <mxCell id="8elSAykd6TNkbuHfAyJK-651" value="Bebidas de Q6.00" style="whiteSpace=wrap;html=1;" vertex="1" parent="1">
          <mxGeometry x="140" y="365" width="60" height="30" as="geometry" />
        </mxCell>
        <mxCell id="8elSAykd6TNkbuHfAyJK-675" value="" style="edgeStyle=orthogonalEdgeStyle;rounded=0;orthogonalLoop=1;jettySize=auto;html=1;" edge="1" parent="1" source="8elSAykd6TNkbuHfAyJK-653" target="8elSAykd6TNkbuHfAyJK-674">
          <mxGeometry relative="1" as="geometry" />
        </mxCell>
        <mxCell id="8elSAykd6TNkbuHfAyJK-653" value="Bebidas de Q5.00" style="whiteSpace=wrap;html=1;" vertex="1" parent="1">
          <mxGeometry x="320" y="365" width="60" height="30" as="geometry" />
        </mxCell>
        <mxCell id="8elSAykd6TNkbuHfAyJK-662" style="edgeStyle=orthogonalEdgeStyle;rounded=0;orthogonalLoop=1;jettySize=auto;html=1;exitX=0.5;exitY=1;exitDx=0;exitDy=0;entryX=0.5;entryY=0;entryDx=0;entryDy=0;" edge="1" parent="1" source="8elSAykd6TNkbuHfAyJK-657" target="8elSAykd6TNkbuHfAyJK-630">
          <mxGeometry relative="1" as="geometry" />
        </mxCell>
        <mxCell id="8elSAykd6TNkbuHfAyJK-657" value="&lt;font style=&quot;font-size: 6px;&quot;&gt;Es posible pagar así&lt;/font&gt;" style="rhombus;whiteSpace=wrap;html=1;" vertex="1" parent="1">
          <mxGeometry x="357.5" y="180" width="75" height="55" as="geometry" />
        </mxCell>
        <mxCell id="8elSAykd6TNkbuHfAyJK-667" style="edgeStyle=orthogonalEdgeStyle;rounded=0;orthogonalLoop=1;jettySize=auto;html=1;exitX=0;exitY=0.5;exitDx=0;exitDy=0;entryX=1;entryY=0.5;entryDx=0;entryDy=0;" edge="1" parent="1" source="8elSAykd6TNkbuHfAyJK-663" target="8elSAykd6TNkbuHfAyJK-643">
          <mxGeometry relative="1" as="geometry" />
        </mxCell>
        <mxCell id="8elSAykd6TNkbuHfAyJK-713" style="edgeStyle=orthogonalEdgeStyle;rounded=0;orthogonalLoop=1;jettySize=auto;html=1;exitX=0.5;exitY=1;exitDx=0;exitDy=0;entryX=0;entryY=0.5;entryDx=0;entryDy=0;" edge="1" parent="1" source="8elSAykd6TNkbuHfAyJK-663" target="8elSAykd6TNkbuHfAyJK-645">
          <mxGeometry relative="1" as="geometry" />
        </mxCell>
        <mxCell id="8elSAykd6TNkbuHfAyJK-663" value="&lt;font style=&quot;font-size: 6px;&quot;&gt;Seleccionar el &lt;br&gt;producto deseado&lt;/font&gt;" style="rhombus;whiteSpace=wrap;html=1;" vertex="1" parent="1">
          <mxGeometry x="355" y="295" width="80" height="70" as="geometry" />
        </mxCell>
        <mxCell id="8elSAykd6TNkbuHfAyJK-670" style="edgeStyle=orthogonalEdgeStyle;rounded=0;orthogonalLoop=1;jettySize=auto;html=1;exitX=0;exitY=0.5;exitDx=0;exitDy=0;entryX=1;entryY=0.5;entryDx=0;entryDy=0;" edge="1" parent="1" source="8elSAykd6TNkbuHfAyJK-669" target="8elSAykd6TNkbuHfAyJK-651">
          <mxGeometry relative="1" as="geometry" />
        </mxCell>
        <mxCell id="8elSAykd6TNkbuHfAyJK-671" style="edgeStyle=orthogonalEdgeStyle;rounded=0;orthogonalLoop=1;jettySize=auto;html=1;exitX=1;exitY=0.5;exitDx=0;exitDy=0;entryX=0;entryY=0.5;entryDx=0;entryDy=0;" edge="1" parent="1" source="8elSAykd6TNkbuHfAyJK-669" target="8elSAykd6TNkbuHfAyJK-653">
          <mxGeometry relative="1" as="geometry" />
        </mxCell>
        <mxCell id="8elSAykd6TNkbuHfAyJK-669" value="&lt;font style=&quot;font-size: 6px;&quot;&gt;Valor de bebida&lt;/font&gt;" style="rhombus;whiteSpace=wrap;html=1;" vertex="1" parent="1">
          <mxGeometry x="220" y="352.5" width="80" height="55" as="geometry" />
        </mxCell>
        <mxCell id="8elSAykd6TNkbuHfAyJK-685" style="edgeStyle=orthogonalEdgeStyle;rounded=0;orthogonalLoop=1;jettySize=auto;html=1;exitX=0.5;exitY=1;exitDx=0;exitDy=0;entryX=0;entryY=0.5;entryDx=0;entryDy=0;" edge="1" parent="1" source="8elSAykd6TNkbuHfAyJK-672" target="8elSAykd6TNkbuHfAyJK-683">
          <mxGeometry relative="1" as="geometry" />
        </mxCell>
        <mxCell id="8elSAykd6TNkbuHfAyJK-672" value="50 bebidas en stock" style="whiteSpace=wrap;html=1;" vertex="1" parent="1">
          <mxGeometry x="135" y="430" width="70" height="35" as="geometry" />
        </mxCell>
        <mxCell id="8elSAykd6TNkbuHfAyJK-684" value="" style="edgeStyle=orthogonalEdgeStyle;rounded=0;orthogonalLoop=1;jettySize=auto;html=1;" edge="1" parent="1" source="8elSAykd6TNkbuHfAyJK-674" target="8elSAykd6TNkbuHfAyJK-683">
          <mxGeometry relative="1" as="geometry" />
        </mxCell>
        <mxCell id="8elSAykd6TNkbuHfAyJK-674" value="50 bebidas en stock" style="whiteSpace=wrap;html=1;" vertex="1" parent="1">
          <mxGeometry x="315" y="430" width="70" height="30" as="geometry" />
        </mxCell>
        <mxCell id="8elSAykd6TNkbuHfAyJK-686" style="edgeStyle=orthogonalEdgeStyle;rounded=0;orthogonalLoop=1;jettySize=auto;html=1;exitX=0.5;exitY=1;exitDx=0;exitDy=0;entryX=1;entryY=0.5;entryDx=0;entryDy=0;" edge="1" parent="1" source="8elSAykd6TNkbuHfAyJK-676" target="8elSAykd6TNkbuHfAyJK-683">
          <mxGeometry relative="1" as="geometry" />
        </mxCell>
        <mxCell id="8elSAykd6TNkbuHfAyJK-676" value="50 golosinas en stock" style="whiteSpace=wrap;html=1;" vertex="1" parent="1">
          <mxGeometry x="480" y="465" width="80" height="27.5" as="geometry" />
        </mxCell>
        <mxCell id="8elSAykd6TNkbuHfAyJK-698" style="edgeStyle=orthogonalEdgeStyle;rounded=0;orthogonalLoop=1;jettySize=auto;html=1;exitX=0.5;exitY=1;exitDx=0;exitDy=0;entryX=0.5;entryY=0;entryDx=0;entryDy=0;" edge="1" parent="1" source="8elSAykd6TNkbuHfAyJK-683" target="8elSAykd6TNkbuHfAyJK-693">
          <mxGeometry relative="1" as="geometry" />
        </mxCell>
        <mxCell id="8elSAykd6TNkbuHfAyJK-714" style="edgeStyle=orthogonalEdgeStyle;rounded=0;orthogonalLoop=1;jettySize=auto;html=1;exitX=1;exitY=1;exitDx=0;exitDy=0;" edge="1" parent="1" source="8elSAykd6TNkbuHfAyJK-683">
          <mxGeometry relative="1" as="geometry">
            <mxPoint x="470" y="560.5483870967741" as="targetPoint" />
          </mxGeometry>
        </mxCell>
        <mxCell id="8elSAykd6TNkbuHfAyJK-683" value="&lt;font style=&quot;font-size: 10px;&quot;&gt;Hay productos en stock&lt;/font&gt;" style="rhombus;whiteSpace=wrap;html=1;" vertex="1" parent="1">
          <mxGeometry x="300" y="489" width="100" height="95" as="geometry" />
        </mxCell>
        <mxCell id="8elSAykd6TNkbuHfAyJK-705" value="" style="edgeStyle=orthogonalEdgeStyle;rounded=0;orthogonalLoop=1;jettySize=auto;html=1;" edge="1" parent="1" source="8elSAykd6TNkbuHfAyJK-693" target="8elSAykd6TNkbuHfAyJK-704">
          <mxGeometry relative="1" as="geometry" />
        </mxCell>
        <mxCell id="8elSAykd6TNkbuHfAyJK-693" value="Si" style="whiteSpace=wrap;html=1;" vertex="1" parent="1">
          <mxGeometry x="310" y="600" width="80" height="25" as="geometry" />
        </mxCell>
        <mxCell id="8elSAykd6TNkbuHfAyJK-712" style="edgeStyle=orthogonalEdgeStyle;rounded=0;orthogonalLoop=1;jettySize=auto;html=1;exitX=0.5;exitY=0;exitDx=0;exitDy=0;entryX=1;entryY=0.5;entryDx=0;entryDy=0;" edge="1" parent="1" source="8elSAykd6TNkbuHfAyJK-694" target="8elSAykd6TNkbuHfAyJK-663">
          <mxGeometry relative="1" as="geometry" />
        </mxCell>
        <mxCell id="8elSAykd6TNkbuHfAyJK-694" value="Informar al cliente" style="whiteSpace=wrap;html=1;" vertex="1" parent="1">
          <mxGeometry x="700" y="510" width="90" height="25" as="geometry" />
        </mxCell>
        <mxCell id="8elSAykd6TNkbuHfAyJK-707" value="" style="edgeStyle=orthogonalEdgeStyle;rounded=0;orthogonalLoop=1;jettySize=auto;html=1;" edge="1" parent="1" source="8elSAykd6TNkbuHfAyJK-704" target="8elSAykd6TNkbuHfAyJK-706">
          <mxGeometry relative="1" as="geometry" />
        </mxCell>
        <mxCell id="8elSAykd6TNkbuHfAyJK-709" value="" style="edgeStyle=orthogonalEdgeStyle;rounded=0;orthogonalLoop=1;jettySize=auto;html=1;" edge="1" parent="1" source="8elSAykd6TNkbuHfAyJK-704" target="8elSAykd6TNkbuHfAyJK-708">
          <mxGeometry relative="1" as="geometry" />
        </mxCell>
        <mxCell id="8elSAykd6TNkbuHfAyJK-711" value="" style="edgeStyle=orthogonalEdgeStyle;rounded=0;orthogonalLoop=1;jettySize=auto;html=1;" edge="1" parent="1" source="8elSAykd6TNkbuHfAyJK-704" target="8elSAykd6TNkbuHfAyJK-710">
          <mxGeometry relative="1" as="geometry" />
        </mxCell>
        <mxCell id="8elSAykd6TNkbuHfAyJK-704" value="&lt;font style=&quot;font-size: 10px;&quot;&gt;El pago el mayor , igual o menor&lt;/font&gt;" style="rhombus;whiteSpace=wrap;html=1;" vertex="1" parent="1">
          <mxGeometry x="300" y="650" width="100" height="80" as="geometry" />
        </mxCell>
        <mxCell id="8elSAykd6TNkbuHfAyJK-743" style="edgeStyle=orthogonalEdgeStyle;rounded=0;orthogonalLoop=1;jettySize=auto;html=1;exitX=0.5;exitY=1;exitDx=0;exitDy=0;entryX=0;entryY=0.5;entryDx=0;entryDy=0;" edge="1" parent="1" source="8elSAykd6TNkbuHfAyJK-706" target="8elSAykd6TNkbuHfAyJK-739">
          <mxGeometry relative="1" as="geometry">
            <Array as="points">
              <mxPoint x="190" y="1207" />
            </Array>
          </mxGeometry>
        </mxCell>
        <mxCell id="8elSAykd6TNkbuHfAyJK-706" value="Igual" style="whiteSpace=wrap;html=1;" vertex="1" parent="1">
          <mxGeometry x="150" y="675" width="80" height="30" as="geometry" />
        </mxCell>
        <mxCell id="8elSAykd6TNkbuHfAyJK-727" value="" style="edgeStyle=orthogonalEdgeStyle;rounded=0;orthogonalLoop=1;jettySize=auto;html=1;" edge="1" parent="1" source="8elSAykd6TNkbuHfAyJK-708" target="8elSAykd6TNkbuHfAyJK-726">
          <mxGeometry relative="1" as="geometry" />
        </mxCell>
        <mxCell id="8elSAykd6TNkbuHfAyJK-708" value="Menor" style="whiteSpace=wrap;html=1;" vertex="1" parent="1">
          <mxGeometry x="485" y="675" width="70" height="30" as="geometry" />
        </mxCell>
        <mxCell id="8elSAykd6TNkbuHfAyJK-722" value="" style="edgeStyle=orthogonalEdgeStyle;rounded=0;orthogonalLoop=1;jettySize=auto;html=1;" edge="1" parent="1" source="8elSAykd6TNkbuHfAyJK-710" target="8elSAykd6TNkbuHfAyJK-721">
          <mxGeometry relative="1" as="geometry" />
        </mxCell>
        <mxCell id="8elSAykd6TNkbuHfAyJK-710" value="Mayor" style="whiteSpace=wrap;html=1;" vertex="1" parent="1">
          <mxGeometry x="305" y="770" width="90" height="20" as="geometry" />
        </mxCell>
        <mxCell id="8elSAykd6TNkbuHfAyJK-716" style="edgeStyle=orthogonalEdgeStyle;rounded=0;orthogonalLoop=1;jettySize=auto;html=1;exitX=1;exitY=0.5;exitDx=0;exitDy=0;entryX=0.5;entryY=1;entryDx=0;entryDy=0;" edge="1" parent="1" source="8elSAykd6TNkbuHfAyJK-715" target="8elSAykd6TNkbuHfAyJK-694">
          <mxGeometry relative="1" as="geometry" />
        </mxCell>
        <mxCell id="8elSAykd6TNkbuHfAyJK-715" value="No" style="whiteSpace=wrap;html=1;" vertex="1" parent="1">
          <mxGeometry x="470" y="549" width="80" height="21" as="geometry" />
        </mxCell>
        <mxCell id="8elSAykd6TNkbuHfAyJK-725" value="" style="edgeStyle=orthogonalEdgeStyle;rounded=0;orthogonalLoop=1;jettySize=auto;html=1;" edge="1" parent="1" source="8elSAykd6TNkbuHfAyJK-721" target="8elSAykd6TNkbuHfAyJK-724">
          <mxGeometry relative="1" as="geometry" />
        </mxCell>
        <mxCell id="8elSAykd6TNkbuHfAyJK-721" value="&lt;font style=&quot;font-size: 6px;&quot;&gt;Q100 en monedas de Q1.00&lt;br&gt;Q 100.00 en monedas de Q 0.50&lt;br&gt;Q 200.00 en monedas de Q 0.25&lt;br&gt;Q 200.00 en billetes de Q 5.00 (20 billetes)&lt;br&gt;Q 200.00 en billetes de Q 10.00 (10 billetes)&lt;br&gt;Q 200.00 en billetes de Q 20.00 (5 billetes)&lt;/font&gt;" style="whiteSpace=wrap;html=1;" vertex="1" parent="1">
          <mxGeometry x="285" y="810" width="130" height="90" as="geometry" />
        </mxCell>
        <mxCell id="8elSAykd6TNkbuHfAyJK-729" value="" style="edgeStyle=orthogonalEdgeStyle;rounded=0;orthogonalLoop=1;jettySize=auto;html=1;" edge="1" parent="1" source="8elSAykd6TNkbuHfAyJK-724" target="8elSAykd6TNkbuHfAyJK-728">
          <mxGeometry relative="1" as="geometry" />
        </mxCell>
        <mxCell id="8elSAykd6TNkbuHfAyJK-724" value="Vuelto = Pago - Valor del producto" style="whiteSpace=wrap;html=1;" vertex="1" parent="1">
          <mxGeometry x="295" y="920" width="110" height="35" as="geometry" />
        </mxCell>
        <mxCell id="8elSAykd6TNkbuHfAyJK-726" value="Menor" style="whiteSpace=wrap;html=1;" vertex="1" parent="1">
          <mxGeometry x="635" y="675" width="70" height="30" as="geometry" />
        </mxCell>
        <mxCell id="8elSAykd6TNkbuHfAyJK-731" value="" style="edgeStyle=orthogonalEdgeStyle;rounded=0;orthogonalLoop=1;jettySize=auto;html=1;" edge="1" parent="1" source="8elSAykd6TNkbuHfAyJK-728" target="8elSAykd6TNkbuHfAyJK-730">
          <mxGeometry relative="1" as="geometry" />
        </mxCell>
        <mxCell id="8elSAykd6TNkbuHfAyJK-733" value="" style="edgeStyle=orthogonalEdgeStyle;rounded=0;orthogonalLoop=1;jettySize=auto;html=1;" edge="1" parent="1" source="8elSAykd6TNkbuHfAyJK-728" target="8elSAykd6TNkbuHfAyJK-732">
          <mxGeometry relative="1" as="geometry" />
        </mxCell>
        <mxCell id="8elSAykd6TNkbuHfAyJK-728" value="Hay vuelto disponible" style="rhombus;whiteSpace=wrap;html=1;" vertex="1" parent="1">
          <mxGeometry x="300" y="970" width="100" height="57.5" as="geometry" />
        </mxCell>
        <mxCell id="8elSAykd6TNkbuHfAyJK-747" value="" style="edgeStyle=orthogonalEdgeStyle;rounded=0;orthogonalLoop=1;jettySize=auto;html=1;" edge="1" parent="1" source="8elSAykd6TNkbuHfAyJK-730" target="8elSAykd6TNkbuHfAyJK-746">
          <mxGeometry relative="1" as="geometry" />
        </mxCell>
        <mxCell id="8elSAykd6TNkbuHfAyJK-730" value="No" style="whiteSpace=wrap;html=1;" vertex="1" parent="1">
          <mxGeometry x="555" y="988.13" width="50" height="21.25" as="geometry" />
        </mxCell>
        <mxCell id="8elSAykd6TNkbuHfAyJK-735" value="" style="edgeStyle=orthogonalEdgeStyle;rounded=0;orthogonalLoop=1;jettySize=auto;html=1;" edge="1" parent="1" source="8elSAykd6TNkbuHfAyJK-732" target="8elSAykd6TNkbuHfAyJK-734">
          <mxGeometry relative="1" as="geometry" />
        </mxCell>
        <mxCell id="8elSAykd6TNkbuHfAyJK-732" value="Si" style="whiteSpace=wrap;html=1;" vertex="1" parent="1">
          <mxGeometry x="330" y="1050" width="40" height="23.75" as="geometry" />
        </mxCell>
        <mxCell id="8elSAykd6TNkbuHfAyJK-740" value="" style="edgeStyle=orthogonalEdgeStyle;rounded=0;orthogonalLoop=1;jettySize=auto;html=1;" edge="1" parent="1" source="8elSAykd6TNkbuHfAyJK-734" target="8elSAykd6TNkbuHfAyJK-739">
          <mxGeometry relative="1" as="geometry" />
        </mxCell>
        <mxCell id="8elSAykd6TNkbuHfAyJK-734" value="Entregar vuelto" style="shape=parallelogram;perimeter=parallelogramPerimeter;whiteSpace=wrap;html=1;fixedSize=1;" vertex="1" parent="1">
          <mxGeometry x="290" y="1100" width="120" height="34.38" as="geometry" />
        </mxCell>
        <mxCell id="8elSAykd6TNkbuHfAyJK-745" value="" style="edgeStyle=orthogonalEdgeStyle;rounded=0;orthogonalLoop=1;jettySize=auto;html=1;" edge="1" parent="1" source="8elSAykd6TNkbuHfAyJK-739" target="8elSAykd6TNkbuHfAyJK-744">
          <mxGeometry relative="1" as="geometry" />
        </mxCell>
        <mxCell id="8elSAykd6TNkbuHfAyJK-739" value="Entregar producto" style="shape=parallelogram;perimeter=parallelogramPerimeter;whiteSpace=wrap;html=1;fixedSize=1;" vertex="1" parent="1">
          <mxGeometry x="285" y="1190" width="130" height="34.38" as="geometry" />
        </mxCell>
        <mxCell id="8elSAykd6TNkbuHfAyJK-744" value="FIN" style="ellipse;whiteSpace=wrap;html=1;" vertex="1" parent="1">
          <mxGeometry x="290" y="1260" width="120" height="38.43" as="geometry" />
        </mxCell>
        <mxCell id="8elSAykd6TNkbuHfAyJK-749" value="" style="edgeStyle=orthogonalEdgeStyle;rounded=0;orthogonalLoop=1;jettySize=auto;html=1;" edge="1" parent="1" source="8elSAykd6TNkbuHfAyJK-746" target="8elSAykd6TNkbuHfAyJK-748">
          <mxGeometry relative="1" as="geometry" />
        </mxCell>
        <mxCell id="8elSAykd6TNkbuHfAyJK-746" value="Informar al cliente" style="whiteSpace=wrap;html=1;" vertex="1" parent="1">
          <mxGeometry x="532.5" y="1060" width="95" height="30.62" as="geometry" />
        </mxCell>
        <mxCell id="8elSAykd6TNkbuHfAyJK-750" style="edgeStyle=orthogonalEdgeStyle;rounded=0;orthogonalLoop=1;jettySize=auto;html=1;entryX=1;entryY=0.5;entryDx=0;entryDy=0;" edge="1" parent="1" source="8elSAykd6TNkbuHfAyJK-748" target="8elSAykd6TNkbuHfAyJK-744">
          <mxGeometry relative="1" as="geometry">
            <Array as="points">
              <mxPoint x="580" y="1279" />
            </Array>
          </mxGeometry>
        </mxCell>
        <mxCell id="8elSAykd6TNkbuHfAyJK-748" value="Devolver dinero&amp;nbsp;" style="whiteSpace=wrap;html=1;" vertex="1" parent="1">
          <mxGeometry x="532.5" y="1170.62" width="95" height="30.62" as="geometry" />
        </mxCell>
      </root>
    </mxGraphModel>
  </diagram>
</mxfile>
